<?xml version="1.0" encoding="UTF-8"?>
<svg id="Calque_2" data-name="Calque 2" xmlns="http://www.w3.org/2000/svg" viewBox="0 0 105.4 91.69">
  <defs>
    <style>
      .cls-1 {
        fill: #e2de00;
      }
    </style>
  </defs>
  <g id="Calque_1-2" data-name="Calque 1">
    <path class="cls-1" d="M101.84,89.3c-2.36-1.67-2.71-10.48-3.27-14.65-2.52-15.38-6.69-36.02-7.07-51.64-.1-.31-.21-.62-.31-.94-.47-1.44-.58-2.98-.63-4.48,0-.17-.02-.33-.03-.5-.24-.94-.15-2.33-.12-3.17,0-.09,0-.18,0-.26-1.01-1.99-.34-4.37-.43-6.53.09-.99.07-2.88.95-3.42.34-.68.8-1.29,1.4-1.74.58-.44,1.31-.63,2.03-.58.42-.14.97-.19,1.74-.07v-.6c-2.63-.38-5.95.25-8.69-.21-1.51.03-3.02.03-4.53-.08-.03.02-.06.05-.08.07,0,.09.02.19,0,.28-.32,1.17-1.09,2.03-1.61,3.1-.52,1.06-.86,2.2-1.42,3.24-.13.24-.29.45-.44.67-.04.1-.09.19-.13.3-.43.99-.81,1.96-1.27,2.95-.16.35.02.97-.63,1.18.02.2-.03.4-.01.6-7.55,19.48-15.32,38.91-23.54,58.12-.59,1.38-.53,4.18-1.96,1.89-4.78-9.95-8.11-21.07-12.29-31.1C33.81,28.69,27.42,13.51,22.2.73c-1.46-1.56-5.23-.14-7.17-.13-3.09.03-6.21-.27-9.29-.24-.38,1.82,1.8,1.09,3.3,1.81,4.19,2.02,5.61,7.01,5.4,11.22-.67,13.28-4.06,29.24-5.81,42.74-1.2,9.23-1.63,18.73-3.12,27.87-.74,4.57-.99,5.7-5.47,6.19-.07.37.08.89-.03,1.19l12.56.3c.08-.35-.03-.81.03-1.19-6.67-2.05-2.28-11.88-1.99-17.33,2.13-18.22,4.9-36.45,6.68-54.66l31.22,72.83,1.68-.98c9.49-24.36,20.34-48.28,29.38-72.77.85-.12.84,1.08.98,1.68,2.81,13.43,5.78,35.28,6.2,49.14.35,1.19.44,3.32.62,4.4.43,4.2,3.22,12.68,1.34,16.25-.99,1.31-3.46.7-3.1,2.56l19.75-.13c.45-1.86-2.23-1.28-3.51-2.19Z"/>
  </g>
</svg>