<?xml version="1.0" encoding="UTF-8"?>
<svg id="Calque_2" data-name="Calque 2" xmlns="http://www.w3.org/2000/svg" viewBox="0 0 95.06 106.21">
  <defs>
    <style>
      .cls-1 {
        fill: #e2de00;
      }
    </style>
  </defs>
  <g id="Calque_1-2" data-name="Calque 1">
    <path class="cls-1" d="M57.12,30.29c1.45.65,2.91.54,4.39,0,.99-.35,1.81-1.05,2.75-1.49-.78,2.06-.04,3.53,1.61,4.75,1.12.83,1.94,1.16,3.37,1.05,4.02-.32,14.41-4.71,11.76-10.12-2.16-4.4-7.11-2.4-11.01-2.23-6.16.28-10.63-.99-14.59-5.86-3.42-4.2-7.12-13.71.66-15.51,6.6-1.53,22.77-1.19,28.83,1.86,2.05,1.03,3.31,3.05,2.72,5.43-.03.11-.28.09-.29.19-.06.6.19.57-.33,1.3-1.64,2.29-5.33,2.37-7.88,2.3-2.32-.07-4.65-.46-6.97-.56l3.49-1.34c2.96-1.3,6.57-3.6,1.45-5.47s-13.42.73-16.4,4.87c-1.41,1.97-1.97,3.2-.89,5.5,3.12,6.62,8.91,2.39,13.8,1.23,2.35-.56,4.41-.73,6.76,0,2.9.9,10.06,5.6,11.25,8.38.62,1.43.53,3.49-.43,4.74-4.12,5.38-12.54,7.99-18.29,11.38-.25.07-1.72.53-1.78.6-.01.02-.01.42,0,.44.1.13,2.72.77,3.12.89,5.82,1.78,16.14,4.61,20.34-1.14.09-.12.08-.44.33-.12-.07.24-.08.46-.11.71-.27,3.06-1.02,6.99-3.06,9.73l-1.59,1.16c.51.53,1.21.69,1.7,1.27,1.57,1.84,2.55,5.94,2.91,8.4.11.75.17.97.3,1.51.07.28-.03.64,0,.94-.28-.04-.18-.55-.3-.78-.23-.44-1.71-1.75-2.18-2.02-3.97-2.35-13.69-.79-17.89.87-.06.02-.11.09-.15.15-.05,0-.1,0-.15,0-1.06,0-2.26.75-3.27,1.04-.07.39.06.23.21.31.45.23,1.07.45,1.57.58.04,0,.1.14.3.15l.3.15c4.33,2.25,8.87,4.21,12.98,6.87,2.33,1.5,6.04,4.18,5.75,7.33-.03.38-.36.55-.4.77-.03.16.12.36.08.54-.68,2.82-9.23,8.33-12.01,8.96-2.05.47-4.41.25-6.43-.27-3.82-.98-8.49-4.2-11.92-.84-1.23,1.21-2.24,2.82-1.98,4.64.19,1.31,1.16,3.25,2.14,4.11,4.16,3.67,11.59,5.97,16.79,3.3,2.47-1.27,1.56-2.68-.35-3.86-1.67-1.04-3.53-1.43-5.22-2.22-.21-.1-.41.09-.33-.34,3.5-.12,7.43-.89,10.91-.27,1.4.25,1.78.66,2.92,1.17-.04.61.7.81.98,1.33.44.82.28,1.51.26,2.34-.01.74.17.42-.16,1.12-.03.06.07.63-.19,1.16-.5,1-1.9,1.8-2.9,2.23-6.27,2.72-19.84,2.96-26.6,1.91-5.43-.84-7.12-3.88-5.7-9.23,2.05-7.73,8.8-12.79,16.77-12.56,4.03.12,11.48,2.44,12.59-3.13.91-4.54-6.05-7.87-9.63-8.74-3.15-.76-5.42-.8-7.29,2.16-.37.58-.73,1.29-.67,2.01.02.29.75,1.03.08.96-.37-.57-2.92-1.53-3.66-1.62-.68-.09-3.57-.03-3.62.94-.03.61.44,1.09.45,1.2.03.4-.23.89-.17,1.17.02.11.27.09.3.19.18.7-.63,3.85-1.03,4.55-.12.2-.64.25-.45.85-.26-.03-.2-.21-.24-.35-.53-1.96-2.98-3.78-4.97-4.48-2.45-.87-3.98-.67-6.34.34-1.4.6-2.4,1.41-3.38,2.56l-1.05,1.92c-1.12-1.79-1.7-4.22-1.41-6.32.15-1.09.93-1.66-.2-2.18-2.23-1.04-3.97-.11-5.87.89-.22.11-.53.04-.63.11-.11.08-.37.71-.59.51-.27-.25.27-.3.29-.39.17-.82.04-1.86-.33-2.62-2.23-4.52-8.21-2.47-11.66-.73-2.36,1.2-5.4,3.23-5.56,6.04-.1,1.67,1.17,4.01,2.8,4.5,3.16.94,8.8-.48,12.45-.26,3.8.23,7.44,2.04,9.96,4.76.73.78,1.58,1.93,2.15,2.83.74,1.17,1.44,2.57,1.93,3.87,0,.02-.1.16,0,.45l.3.45c1.13,3.76.74,7.82-3.57,9-5.97,1.63-17.38,1.14-23.53.03-4.24-.77-9.83-1.99-8.68-7.55,1.05-5.04,10.72-3.27,14.29-2.97.42.04.84-.02,1.26,0l-3.3,1.23c-1.14.71-3.43,1.39-4.12,2.58-.19.34-.12.69-.47,1.02,1.95,2.46,5.68,2.97,8.68,2.58,5.43-.7,15.9-5.86,10.63-12.52-3.12-3.95-7.05-1.46-10.8-.29-6.11,1.91-9.02,1.24-14.24-2.19-3.06-2.01-7.99-5.59-5.9-9.77,1.96-3.91,10.36-7.82,14.3-9.79,1.49-.75,4.69-1.91,5.83-2.75.15-.11.21-.27.27-.44-2.9-.91-5.78-1.9-8.77-2.46-4.13-.78-11.89-1.77-14.58,2.27-.18.26-.21.93-.59,1.08.31-2.75.73-5.69,1.76-8.28.66-1.65,1.46-2.93,3-3.84-.35-.33-.86-.57-1.2-.89-1.98-1.88-3.61-8.11-3.41-10.7,0-.08-.61-.07-.15-.46l1.38,1.97c1.88,1.29,4.27,1.99,6.28,1.97,4.41-.04,8.69-.85,12.9-2.12.44-.13,3.27-1.02,3.39-1.15.21-.24-.07-.25-.19-.33-1.4-.91-3.82-1.68-5.41-2.47-4.02-1.97-13.28-6.32-15.07-10.36s3.09-7.62,6.06-9.57c4.55-2.98,7.4-3.96,12.87-2.51,4.29,1.14,9.11,4.49,12.44-.44,2.69-3.99-.55-7.67-4-9.63-3.65-2.08-8.68-3.12-12.75-1.77-.84.28-2.65,1.06-2.72,2.05-.09,1.27,1.47,2.07,2.39,2.6.81.47,1.38.7,2.23,1.04.81.32,1.66.57,2.47.87.19.07.46.03.5.31-4.28-.05-10.59,1.87-14.27-.97-1.03-.79-1.64-3.07-1.34-4.28.03-.11.28-.09.29-.19.07-.71-.11-.75.39-1.53C9.78,1.76,17.74.68,20.91.4c4.77-.43,14.52-.75,18.99.63,5.44,1.69,4.06,8.16,2.05,11.86-.68,1.24-1.36,2.44-2.23,3.57-4.13,5.35-9.21,6.26-15.69,5.8-2.56-.18-6.8-1.29-8.86.66-.16.15-1.07,1.32-1.15,1.46-.11.19,0,.44-.04.56-.04.1-.24.19-.29.52-.07.49.1,2.64.33,3.01.05.09.36.15.49.32,1.03,1.33,1.06,1.41,2.45,2.39.17.12.27.18.45.3.31.2.47.37.89.59,3.29,1.8,9.52,4.45,12.19.48.83-1.24,1.19-2.41.38-3.75,1.17.65,2.25,1.43,3.61,1.74.5.11,2.78.32,3.12.16.04-.02.06-.22.14-.26.24-.13.85-.29.92-.55.04-.12-.48-2.03-.52-2.54-.03-.46.03-1.45.1-1.88s1.06-3.6,1.25-3.66c.09-.03.35-.05.35.07,0,1.55,2.35,3.38,3.59,4.09.88.51,1.23.66,2.23.89,3.74.85,7.84-.88,9.54-4.36.13-.26.23-.55.28-.84.56.44.74,1.27.89,1.93.03.15-.08.45.03.57.06.07.25,0,.27.03.02.02-.02.11,0,.15.04.06,0,.26.15.3,0,.05,0,.1,0,.15.1.97.18,3.66-.16,4.5-.05.13-.3.06-.29.32.03.59.35.51.75.68ZM55.04,43.82c-1.73.8-3.89,2.31-5.19-.09-.41-.76-1.89-5.61-2.18-5.71-.32-.11-.34,1.05-.53,1.22-.51.26-.25.59-.39.97-.42,1.2-1.04,3.85-2.05,4.5-1.36.88-3.38-.28-4.69-.89-.03-.01-.11-.18-.26-.26-.37-.18-2.75-1.34-2.86-1.23-.16.35.28.56.3.59.41,1.18.49,1.58,1.19,2.68.09.13-.01.26.3.45-.1.83.4,1.33.89,1.93.11.63.24.86-.01,1.52-.04.11-.25.12-.26.14-.04.1.17.31.11.4-.05.07-1.16,1-1.33,1.06-.14.05-.46,0-.71.1-.76.28-1.54.57-2.26.94-.1.01-.2-.02-.3,0-.28.05-1.7.59-2.02.73-.13.06-.45.06-.21.31.2.21,3.18,1,3.72,1.19.68.25,1.88.63,2.49,1,1.16.7.89,1.8.79,2.87-.52.61-.71,1.5-1.04,2.23-.04.1-.1.19-.15.3-.4.89-.78,1.83-1.2,2.71-.09.2-.34.02-.29.26.53-.17,1.31-.24,1.63-.74.08,0,.22.01.3,0,.51-.09,2.06-1.06,2.68-1.34.66-.3,1.2-.7,1.98-.69.57,0,1.49.49,1.89.91.33.35,1.03,2.44,1.26,3.06.34.92.65,2,.93,2.95.06.2-.05.39.26.32l2.01-5.73c.31-.7.72-1.13,1.45-1.37,1.35-.45,1.7.19,2.87.56l4.31,2.08c.17-.18-1.03-2.2-1.19-2.53-.39-.81-1.11-2.11-1.37-2.87-.57-1.65.02-2.66,1.52-3.38.14-.07.53-.21.74-.3s.48-.25.59-.3.34-.05.59-.15c.14-.05.3-.1.45-.15.4-.14,2.97-.79,2.97-1.12-.57-.38-1.29-.59-1.93-.82-1.22-.43-4.05-1.02-4.73-2.03-1.05-1.57.08-3.03.72-4.51.06-.13.18-.31.3-.59.19-.45.48-.87.59-1.34.26-.14.21-.42.3-.59.02-.04-.02-.1,0-.15.02-.06.46-.22.3-.59-.45-.11-.75.31-1.04.45-.06.03-.1.13-.15.15-.64.31-1.41.58-2.08.89Z"/>
  </g>
</svg>