<?xml version="1.0" encoding="UTF-8"?>
<svg id="Calque_2" data-name="Calque 2" xmlns="http://www.w3.org/2000/svg" viewBox="0 0 125.6 90.59">
  <defs>
    <style>
      .cls-1 {
        fill: #e2de00;
      }
    </style>
  </defs>
  <g id="Calque_1-2" data-name="Calque 1">
    <g>
      <path class="cls-1" d="M63.85,40.49c-21.76,0-35.07,8.23-35.07,12.71s13.32,12.71,35.07,12.71,35.07-8.23,35.07-12.71-13.32-12.71-35.07-12.71Z"/>
      <path class="cls-1" d="M109.81,0H15.79C7.11,0,0,7.11,0,15.79v59.01c0,8.69,7.11,15.79,15.79,15.79h94.02c8.69,0,15.79-7.11,15.79-15.79V15.79c0-8.69-7.11-15.79-15.79-15.79ZM63.85,82.1c-14.74,0-27.64-3.17-36.83-8.41v6.49H10.47V8.49h16.56v24.2c9.18-5.25,22.08-8.41,36.83-8.41,29.23,0,51.28,12.43,51.28,28.91s-22.04,28.91-51.28,28.91Z"/>
    </g>
  </g>
</svg>