<?xml version="1.0" encoding="UTF-8"?>
<svg id="Calque_2" data-name="Calque 2" xmlns="http://www.w3.org/2000/svg" viewBox="0 0 104.47 101.61">
  <defs>
    <style>
      .cls-1 {
        fill: #e2de00;
      }
    </style>
  </defs>
  <g id="Calque_1-2" data-name="Calque 1">
    <path class="cls-1" d="M100.09,50.47c-2.53-1.76-8.91-6.45-10.2-8.96-1.33-2.59.3-4.26-.08-6.85-.4-2.74-4.8-4.98-4.15-8.62.08-.45.84-.47.55-.81-.11-.13-2.68-.95-3.23-1.25-1.69-.91-2.52-2.5-4.27-3.58-1.24-.76-4.2-1.73-5.01-2.47-1.99-1.84,1.3-4.82-1.49-6.72-2.17-1.48-4.72-1.63-6.81-3.58-3.01-2.81-3.16-6.87-7.98-7.52-3.17-.43-7.92.49-10.61,2.25-.43.28-1.92,1.52-2.12,1.9-.13.26-.12.28.1.46.24.18,3.41.91,3.94.99,1.93.28,6.8.18,8.2,1.47.63.59.83,1.4.27,2.1-1.41,1.78-5.62.95-7.48.18-2.72-1.13-3.37-3.15-6.88-1.95-2.07.71-5.39,4.16-6.9,5.87-.39.44-1.92,2.15-1.88,2.62.18,2.06,3.41-.56,4.28-.95,1.61-.73,3.95-1.37,5.36.06,1.39,1.41-.91,4-1.1,5.66-.11.99-.06,2.27.54,3.1-2.51-1.25-2.08.16-3.18,1.55-2.82,3.56-11.43.15-14.33,3.55-2.24,2.64,4.28,1.83,4.71,3.69.8,3.47-5.98,2.55-6.63,3.89-.44.92,1.88,2.71,2.24,3.6.96,2.39-1.24,4.42-2.99,5.67-2.23,1.58-2.5.87-4.89,1.13-.97.11-1.94.44-2.92.54-2.13.21-6.13-.06-7.81,1.13-.37.26-1.09.93-.77,1.43.45.71,5,.89,6.12,1.18.86.22,4.47,1.58,5.1,2.02.71.5,1.78,1.54.91,2.35-.87.81-3.74.38-5.01.46-2.95.18-5.88,1.13-8.28,2.85-1.84,1.32-3.15,3.36-5.31,4.27-.19.27.69.91.92.99,2.05.69,4.68-1.22,6.96-1.13,4.4.17,3.1,2.98,1.36,5.45-2.33,3.31-5.22,3.89-9.12,4.2-.83.64.88,1.56,1.48,1.74,1.61.5,4.71.22,6.34-.3,1.87-.6,5.47-3.2,7.45-2.17.99.51.66,1.69,1.4,2.25.94.71,5.03.72,4.75,2.55-.07.46-.36.45-.69.6-1.25.6-3.22.81-4.61,1.23-3.3,1-5.42,2.6-8.45,3.95-1.6.72-3.27,1.27-4.94,1.81-.28.07-.4.59-.3.71.23.27,3.54.4,4.1.36,3.19-.21,5.97-1.74,8.99-2.5,7.17-1.79,17.29-.41,22.21,5.6,1.21,1.47,1.95,3.43,3.11,4.91.81,1.03,2,1.81,2.74,2.91.75,1.1,1.93,5.16,3.29,5.29.49.04.95-1.15.96-1.54.03-.66-.85-3.07-1.03-4.05-.19-1.01-.84-5.18-.51-5.87.28-.59,1.19-.58,1.74-.47,2.37.49,3.5,3.32,5.3,4.74,1.99,1.57,4.15,1.4,5.82,2.75,1.69,1.36,3.02,3.9,5.47,3.92-.11-4.2-7.58-6.48-8.17-9.98-.25-1.5.2-2.97,1.87-3.15,2.67-.28,4.98,2.61,7.15,3.98,2.54,1.6,5.77,3.14,8.81,3.13.41-.39-1.42-2.1-1.74-2.37-1.98-1.63-4.83-2.67-6.74-4.39-.76-.68-1.32-1.55-2.1-2.28-1.94-1.81-6.57-3.87-4.53-7.08.98-1.54,2.9-1.93,4.34-.75.74.6.8,1.95,1.83,1.91-.76-1.81-1.13-8.31,1.73-8.37.99-.02,1.22.76,1.79,1.12,1.23.77,3.23,1.46,4.65,1.73,3.13.59,3.5.39,6.19,2.38,2,1.48,4.16,3.36,4.25,6.06,1.65-.14,2.76-3.27,2.72-4.63-.09-3.05-3.93-3.92-5.55-5.76-1.08-1.23-1.14-2.26-1.64-3.65-.49-1.37-2.11-1.66-3.18-2.47-2.95-2.23-2.91-5.61-5.48-7.83-1.25-1.09-6.98-4.43-8.5-4.63-2.83-.37-3.65,1.73-6.19,1.99-.85.09-3.82.16-3.74-1.17.06-1.01,3.22-3.04,4.1-3.76,1.15-.94,1.48-2.02,3.29-2.01,3.19,0,6.16,4.25,8.91,5.7,3,1.59,4.43.81,7.29,1.29,1.39.24,3.37,2.49,4.22,3.62.47.62,2.71,3.76,2.88,4.23.44,1.15-.5,2.6,1.01,2.83,1.54.23,2.65-1.62,4.33-1.62,2.46,0,2.26,3.55,4.96,2.42,3.25-1.37,2.41-4.2,4.16-6.24,1.68-1.95,5.76-2.39,6.54-5.5.82-3.26-2.2-3.94-4.24-5.36Z"/>
  </g>
</svg>