<?xml version="1.0" encoding="UTF-8"?>
<svg id="Calque_2" data-name="Calque 2" xmlns="http://www.w3.org/2000/svg" viewBox="0 0 49.24 48.82">
  <defs>
    <style>
      .cls-1 {
        fill: #e3de00;
      }
    </style>
  </defs>
  <g id="Calque_1-2" data-name="Calque 1">
    <path class="cls-1" d="M40.83,36.44q-.07,0-.14.07c-.36.29-1.37.58-1.8,1.37-1.87,3.67-5.33,8.71-13.39,8.71-.01,0-.02,0-.03,0l2.18-7.32c1.72-5.86,6.25-10.38,12.1-12.11l9.5-2.79-9.51-2.71c-5.85-1.73-10.37-6.25-12.09-12.11l-2.17-7.31c6.35.12,9.48,2.96,10.18,3.66.86.79,2.16,2.38,2.52,5.26.29,1.66,1.08,2.59,1.87,2.66.72.07.86-1.01.79-1.66-.07-3.74-.29-5.62-.58-7.85-.07-1.01-.36-2.09-.94-2.16-1.44-.22-4.18-.86-5.47-1.3s-5.33-.86-7.63-.86C12.24,0,0,10.51,0,24.48c0,13.1,10.15,24.34,23.26,24.34,4.32,0,9.58-.65,12.1-1.44,1.8-.58,3.17-.94,3.53-1.51,1.08-1.66,2.09-5.69,2.38-7.49,0-.14.07-.36.07-.58,0-.65-.22-1.37-.5-1.37ZM24.3,2.25l-2.17,7.3c-1.72,5.86-6.25,10.38-12.08,12.1l-2.85.81c.13-10.22,7.02-19.75,17.1-20.21ZM7.43,26.39l2.6.77c5.86,1.72,10.38,6.25,12.11,12.11l2.16,7.27c-9.4-.74-15.64-10.09-16.87-20.14Z"/>
  </g>
</svg>