<?xml version="1.0" encoding="UTF-8"?>
<svg id="Calque_2" data-name="Calque 2" xmlns="http://www.w3.org/2000/svg" viewBox="0 0 81.86 73.01">
  <defs>
    <style>
      .cls-1 {
        fill: #e2de00;
      }
    </style>
  </defs>
  <g id="Calque_1-2" data-name="Calque 1">
    <path class="cls-1" d="M59.45,37.32c0-8.85-5.77-16.16-15.2-16.16-6.93,0-12.6,4.91-12.6,12.41,0,4.81,3.66,5.67,3.66,5.67l-1.25,2.41s-13.66-3.27-13.66-18.57c0-9.14,8.66-20.3,26.36-20.3,19.62,0,35.11,14.91,35.11,32.42,0,21.16-17.03,37.8-41.94,37.8C18.57,73.01,0,56.37,0,36.84S15.87,0,38.09,0v2.79c-13.37,0-25.97,11.16-25.97,27.13,0,13.66,11.73,25.97,26.74,25.97,12.31,0,20.59-9.14,20.59-18.56Z"/>
  </g>
</svg>