<?xml version="1.0" encoding="UTF-8"?>
<svg id="Calque_2" data-name="Calque 2" xmlns="http://www.w3.org/2000/svg" viewBox="0 0 109.61 106.06">
  <defs>
    <style>
      .cls-1 {
        fill: #e2de00;
      }
    </style>
  </defs>
  <g id="Calque_1-2" data-name="Calque 1">
    <path class="cls-1" d="M107.09,79.13c3.26-5.38,3.07-11.9,1.05-17.65-1.47-4.17-3.83-8.21-6.82-11.46-1.06-1.15-4.04-4.23-5.53-4.31-2.31-.13-5.27.27-7.65.36-8.34.32-16.73.69-25.09,1.14-1.6.09-3.21.33-4.74.39-.37.01-1.58-.01-1.85-.13-.29-.14-.78-.85-.99-1.14-6.96-9.51-12.94-20.28-20.03-29.67-1.23-1.63-1.35-1.85-3.37-2.38-2.07-.53-4.21-.72-6.32-.99-.11-.95,0-1.87-.11-2.83C24.3-.71,9.53-3.91,3.63,5.67c-1.95,3.17-2.23,8.04-.6,11.4.56,1.15,1.52,2.09,2.19,3.16-1.97,1.97-3.56,4.51-4.39,7.18-2.59,8.33,1.17,18.48,6.85,24.76,1,1.11,3.92,3.95,5.08,4.7,1.28.82,3.37.27,4.86.19,11.27-.63,22.58-1.39,33.88-2.16.41-.03,1.79-.36,2.01-.24.3,1,1.69,2.2,2,3.06.03.09-.29.05-.25.15,1.34,1.53,2.28,3.39,3.4,5.1,5.29,8.09,10.6,16.18,15.94,24.25,1.1,1.18,3.5,1.29,5.01,1.71.9,2.07,2.7,2.39,4.74,1.74.09.9-.26,1.72-.31,2.61-.37,6.87,4.22,12.26,11.09,12.77,9.1.67,15.32-9.11,11.4-17.21-.88-1.82-2.45-3.13-3.87-4.5,1.63-1.63,3.23-3.18,4.44-5.18ZM29.21,20.11c.81.12,1.5,1,1.96,1.6,2.08,2.72,3.95,5.9,5.94,8.74.09.13.4.36.4.39.02.11-.11.21-.32.09-.43-.23-.91-.94-1.29-1.3-2.18-2.02-4.23-4.22-6.3-6.36-.3-.31-1.85-1.59-1.88-1.84-.03-.3,1.18-1.38,1.48-1.33ZM42.95,49.27c-7.15.5-14.34.84-21.49,1.23-1.64.09-3.7.5-5.27.44-1.16-.04-2.49-1.38-3.29-2.19-5.45-5.5-9.23-13.52-5.51-21.07.8-1.63,1.88-2.91,3.16-4.18.74-.32,1.44.09,2.21.13.91.05,2.54.03,3.41-.14.32-.06.53-.29.85-.32-.2.61-.52.71-.54,1.44-.08,2.43,1.66,3.38,3.89,2.93.77-.16,2.18-1.91,2.57-1.75l22.98,23.09c-.98.17-1.95.31-2.96.38ZM78.9,82.55c-.71-1.1-1.66-2.03-2.12-3.34.57,1.37,1.8,2.32,2.71,3.45l-.58-.11ZM101.29,76.6c-1.41,2.18-3.72,4.22-6.1,5.3-.87.39-1.95.9-2.9.66.83-1.14.89-2.33.13-3.54-1.47-2.35-4.74-.72-5.96,1.11-.65-.63-1.45-1.25-2.08-1.88-5.65-5.66-11.24-11.51-16.92-17.16-1.77-1.76-3.91-3.46-5.6-5.24-.22-.23-1.54-1.87-1.37-2.07.94-.05,1.89-.19,2.83-.24,8.87-.49,17.81-.7,26.66-1.26,1.2-.08,2.92-.39,4.07-.18,1.08.2,3.91,3.36,4.67,4.31,4.72,5.9,6.94,13.4,2.56,20.18Z"/>
  </g>
</svg>