<?xml version="1.0" encoding="UTF-8"?>
<svg id="Calque_2" data-name="Calque 2" xmlns="http://www.w3.org/2000/svg" viewBox="0 0 130.85 119.31">
  <defs>
    <style>
      .cls-1 {
        fill: #e2de00;
      }
    </style>
  </defs>
  <g id="Calque_1-2" data-name="Calque 1">
    <path class="cls-1" d="M104.4,109.76l-1.52-21-10.22.89,1.67,23.43-5.13,1.73-.59-.38-2.04-22.59c-1.07.16-2.27.47-3.33.57-1.74.15-4.09.01-5.78.31-.34.06-.61.13-.74.49l1.77,25.35c-2.34.69-4.79,1.12-7.14.35l-2.58-25.27-9.59.91-.74.49,2.41,22.94-9-.89-2.26-22.24-10.04.91,1.83,20.7-6.66-.64-2.34-15.46c-9.9-12.14-21.58-23.44-31.33-35.63-.36-.44-.99-1.15-1.06-1.7L16.56,12.94,100.14,0l30.71,44.17-23.04,42.38c.43,6.94,2.96,13.66,3.86,20.58l-7.28,2.63ZM101.96,24.23c-8.99,2.31-18.24,3.87-27.15,6.48-.69.2-4.08,1.1-4.19,1.59l24.35,26.02.62-.17,6.37-33.91ZM56.31,34.28l-33.78-.91,21.46,32.88.76-.21,11.56-31.75ZM69.04,60.51c-.25-.15-.57-.06-.84-.04l-6.11,18.55c7.43-.32,14.9-.8,22.22-2.13.07-.35-.04-.59-.16-.9-.78-1.96-12.06-12.07-14.46-14.46-.29-.29-.59-.98-.64-1.01Z"/>
  </g>
</svg>